# xmcd
#
# Track frame offsets: 
#        150
#        19627
#        42895
#        46535
#        63537
#        82823
#        87410
#        112476
#        129752
#        136264
#        161102
#        168140
#        193938
#        216245
#        235284
#        262552
#        277697
#        303678
#        326402
#
# Disc length: 4560 seconds
#
# Revision: 0
# Processed by: cddbd v1.5.2PL0 Copyright (c) Steve Scherf et al.
# Submitted via: ExactAudioCopy v0.99pb5
#
DISCID=fa11ce13
DTITLE=Bjorn Berge - Live In Europe
DYEAR=2008
DGENRE=Blues
TTITLE0=Buena
TTITLE1=N.V.
TTITLE2=Introducing Louise
TTITLE3=Louise
TTITLE4=Trains
TTITLE5=Sissy Boys and Girlie Men
TTITLE6=Thursday
TTITLE7=Someday
TTITLE8=The Story Behind Stringmachine
TTITLE9=Stringmachine
TTITLE10=The New Guitar
TTITLE11=See That My Grave Is Kept Clean
TTITLE12=Bring It on Home
TTITLE13=Black Jesus
TTITLE14=Testify/Give It Away
TTITLE15=Angel Band
TTITLE16=Ace of Spades
TTITLE17=13 Question Method
TTITLE18=Minutes
EXTD=
EXTT0=
EXTT1=
EXTT2=
EXTT3=
EXTT4=
EXTT5=
EXTT6=
EXTT7=
EXTT8=
EXTT9=
EXTT10=
EXTT11=
EXTT12=
EXTT13=
EXTT14=
EXTT15=
EXTT16=
EXTT17=
EXTT18=
PLAYORDER=
